# AST/ASF file generated using VICON BodyLanguage
# -----------------------------------------------
:version 1.10
:name VICON
:units
  mass 1.0
  length 0.45
  angle deg
:documentation
   .ast/.asf automatically generated from VICON data using
   VICON BodyBuilder and BodyLanguage model FoxedUp or BRILLIANT.MOD
:root
   order TX TY TZ RX RY RZ
   axis XYZ
   position 0 0 0  
   orientation 0 0 0 
:bonedata
  begin
     id 1 
     name lhipjoint
     direction 0.702568 -0.596508 0.388042 
     length 2.56661 
     axis 0 0 0  XYZ
  end
  begin
     id 2 
     name lfemur
     direction 0.34202 -0.939693 0  
     length 6.58374  
     axis 0 0 20  XYZ
    dof rx ry rz
    limits (-160.0 20.0)
           (-70.0 70.0)
           (-60.0 70.0)
  end
  begin
     id 3 
     name ltibia
     direction 0.34202 -0.939693 0   
     length 6.62538   
     axis 0 0 20   XYZ
    dof rx
    limits (-10.0 170.0)
  end
  begin
     id 4 
     name lfoot
     direction 0.10455 -0.287249 0.952133   
     length 2.26699   
     axis -90 7.62852e-016 20   XYZ
    dof rx rz
    limits (-45.0 90.0)
           (-70.0 20.0)
  end
  begin
     id 5 
     name ltoes
     direction 1.53572e-011 -4.22322e-011 1   
     length 1.12949   
     axis -90 7.62852e-016 20   XYZ
    dof rx
    limits (-90.0 20.0)
  end
  begin
     id 6 
     name rhipjoint
     direction -0.728055 -0.574632 0.373811   
     length 2.66432  
     axis 0 0 0  XYZ 
  end
  begin
     id 7 
     name rfemur
     direction -0.34202 -0.939693 0   
     length 6.66732   
     axis 0 0 -20   XYZ
    dof rx ry rz
    limits (-160.0 20.0)
           (-70.0 70.0)
           (-70.0 60.0)
  end
  begin
     id 8 
     name rtibia
     direction -0.34202 -0.939693 0   
     length 6.59288   
     axis 0 0 -20   XYZ
    dof rx
    limits (-10.0 170.0)
 end
 begin
     id 9 
     name rfoot
     direction -0.119193 -0.327479 0.93731   
     length 2.38061  
     axis -90 -7.62852e-016 -20   XYZ
    dof rx rz
    limits (-45.0 90.0)
           (-20.0 70.0)
  end
  begin
     id 10 
     name rtoes
     direction -1.53547e-011 -4.21827e-011 1   
     length 1.17899   
     axis -90 -7.62852e-016 -20   XYZ
    dof rx
    limits (-90.0 20.0)
  end
  begin
     id 11 
     name lowerback
     direction -0.000416114 0.999912 -0.0132284   
     length 2.12109   
     axis 0 0 0   XYZ
    dof rx ry rz
    limits (-20.0 45.0)
           (-30.0 30.0)
           (-30.0 30.0)
  end
  begin
     id 12 
     name upperback
     direction -0.00136371 0.99809 0.0617608   
     length 2.10067   
     axis 0 0 0   XYZ
    dof rx ry rz
    limits (-20.0 45.0)
           (-30.0 30.0)
           (-30.0 30.0)
  end
  begin
     id 13 
     name thorax
     direction -3.43026e-005 0.997776 0.0666515   
     length 2.10618   
     axis 0 0 0   XYZ
    dof rx ry rz
    limits (-20.0 45.0)
           (-30.0 30.0)
           (-30.0 30.0)
  end
  begin
     id 14 
     name lowerneck
     direction 0.0398646 0.998418 0.0396592   
     length 1.83817   
     axis 0 0 0   XYZ
    dof rx ry rz
    limits (-20.0 45.0)
           (-30.0 30.0)
           (-30.0 30.0)
  end
  begin
     id 15 
     name upperneck
     direction -0.0367268 0.961527 -0.272244   
     length 1.81975   
     axis 0 0 0   XYZ
    dof rx ry rz
    limits (-20.0 45.0)
           (-30.0 30.0)
           (-30.0 30.0)
  end
  begin
     id 16
     name head
     direction -0.0182665 0.99536 -0.0944669  
     length 1.86026  
     axis 0 0 0   XYZ
    dof rx ry rz
    limits (-20.0 45.0)
           (-30.0 30.0)
           (-30.0 30.0)
  end
  begin
     id 17 
     name lclavicle
     direction 0.924239 0.361045 0.124212  
     length 3.26878  
     axis 0 0 0   XYZ
    dof ry rz
    limits (-20.0 10.0)
           (0.0 20.0)
  end
  begin
     id 18 
     name lhumerus
     direction 1 -4.48968e-011 -2.56583e-027   
     length 4.58538   
     axis 180 -30 -90   XYZ
    dof rx ry rz
    limits (-60.0 90.0)
           (-90.0 90.0)
           (-90.0 90.0)
  end
  begin
     id 19
     name lradius
     direction 1 -4.4898e-011 -5.50375e-027   
     length 2.68935   
     axis 180 -30 -90   XYZ
    dof rx
    limits (-10.0 170.0)
  end
  begin
     id 20
     name lwrist
     direction 1 -4.48939e-011 -1.48955e-026   
     length 1.34468   
     axis 9.0955e-015 90 90   XYZ
    dof ry
    limits (-180.0 0.0)
 end
  begin
     id 21 
     name lhand
     direction 1 -4.48936e-011 -2.97907e-026   
     length 0.585058   
     axis 1.90115e-014 90 90   XYZ
    dof rx rz
    limits (-90.0 90.0)
           (-45.0 45.0)
  end
  begin
     id 22 
     name lfingers
     direction 1 -4.49082e-011 -5.96235e-026   
     length 0.471689   
     axis 3.80223e-014 90 90   XYZ
    dof rx
    limits (0.0 90.0)
  end
  begin
     id 23
     name lthumb
     direction 0.707107 -6.3489e-011 0.707107   
     length 0.677253   
     axis -90 45 -3.84942e-014   XYZ
    dof rx rz
    limits (-45.0 45.0)
           (-45.0 45.0)
  end
  begin
     id 24 
     name rclavicle
     direction -0.923098 0.371783 0.0983239   
     length 3.19656  
     axis 0 0 0   XYZ 
    dof ry rz
    limits (-10.0 20.0)
           (-20.0 0.0)
  end
  begin
     id 25 
     name rhumerus
     direction -1 -4.48976e-011 -2.5492e-027  
     length 4.4745   
     axis 180 30 90   XYZ
    dof rx ry rz
    limits (-90.0 60.0)
           (-90.0 90.0)
           (-90.0 90.0)
  end
  begin
     id 26 
     name rradius
     direction -1 -4.48941e-011 -4.36555e-027   
     length 2.93896   
     axis 180 30 90   XYZ
    dof rx
    limits (-10.0 170.0)
  end
  begin
     id 27 
     name rwrist
     direction -1 -4.49044e-011 -1.49032e-026   
     length 1.46948   
     axis 9.0955e-015 -90 -90   XYZ
    dof ry
    limits (-180.0 0.0)
  end
  begin
     id 28
     name rhand
     direction -1 -4.48826e-011 -2.97749e-026   
     length 0.405092   
     axis 1.90115e-014 -90 -90   XYZ
    dof rx rz
    limits (-90.0 90.0)
           (-45.0 45.0)
  end
  begin
     id 29
     name rfingers
     direction -1 -4.49209e-011 -5.96602e-026   
     length 0.326596   
     axis 3.80223e-014 -90 -90   XYZ
    dof rx
    limits (0.0 90.0)
  end
  begin
     id 30
     name rthumb
     direction -0.707107 -6.34776e-011 0.707107   
     length 0.468928   
     axis -90 -45 3.84942e-014   XYZ
    dof rx rz
    limits (-45.0 45.0)
           (-45.0 45.0)
  end
:hierarchy
  begin
    root lhipjoint rhipjoint lowerback
    lhipjoint lfemur
    lfemur ltibia
    ltibia lfoot
    lfoot ltoes
    rhipjoint rfemur
    rfemur rtibia
    rtibia rfoot
    rfoot rtoes
    lowerback upperback
    upperback thorax
    thorax lowerneck lclavicle rclavicle
    lowerneck upperneck
    upperneck head
    lclavicle lhumerus
    lhumerus lradius
    lradius lwrist
    lwrist lhand lthumb
    lhand lfingers
    rclavicle rhumerus
    rhumerus rradius
    rradius rwrist
    rwrist rhand rthumb
    rhand rfingers
  end

#!OML:ASF H:\Punching\Project 1\Capture day 1\Session 1\female.ASF
:FULLY-SPECIFIED
:DEGREES
1
root 2.43629 14.5323 0.419278 12.8597 11.2641 2.76117
lowerback -4.95245 -1.60803 -3.55004
upperback -7.81132 -2.0899 -0.348195
thorax -5.22619 -0.850759 1.61238
lowerneck -13.9433 0.766685 6.74196
upperneck 38.2839 0.433861 -3.33699
head 15.967 0.750628 -2.568
rclavicle 2.21148e-015 1.58903e-014
rhumerus 1.90232 22.5404 -74.0558
rradius 135.623
rwrist -14.2934
rhand -31.3025 2.9362
rfingers 7.12502
rthumb -4.57527 -26.9944
lclavicle 2.21148e-015 1.58903e-014
lhumerus -2.60073 -29.8245 79.4137
lradius 137.168
lwrist -4.91744
lhand -24.2801 4.88176
lfingers 7.12502
lthumb 2.20682 34.8501
rfemur -48.0522 -1.58348 3.44812
rtibia 45.1394
rfoot -3.01819 -14.7897
rtoes -10.4018
lfemur 2.5613 -14.083 -19.6405
ltibia 21.6672
lfoot -35.0623 29.0017
ltoes -6.92343
2
root 2.44155 14.533 0.415367 12.8238 11.2407 2.75502
lowerback -4.9644 -1.60669 -3.572
upperback -7.84078 -2.08803 -0.352733
thorax -5.25065 -0.847904 1.62003
lowerneck -13.827 0.771621 6.71139
upperneck 38.2677 0.437026 -3.27543
head 15.9306 0.756117 -2.53352
rclavicle 7.96226e-015 2.06239e-015
rhumerus 1.82297 22.6949 -74.1026
rradius 135.901
rwrist -14.6667
rhand -31.1658 2.855
rfingers 7.12502
rthumb -4.44325 -27.0784
lclavicle 7.96226e-015 2.06239e-015
lhumerus -2.60582 -29.8236 79.3689
lradius 137.321
lwrist -4.95674
lhand -23.8228 4.68924
lfingers 7.12502
lthumb 2.64852 34.6525
rfemur -47.9821 -1.54388 3.41952
rtibia 45.0525
rfoot -2.96919 -14.798
rtoes -10.4495
lfemur 2.58959 -14.0516 -19.6707
ltibia 21.6714
lfoot -35.036 29.019
ltoes -7.04601
3
root 2.44619 14.5352 0.410833 12.8003 11.2476 2.72289
lowerback -4.99519 -1.62187 -3.56875
upperback -7.86641 -2.10712 -0.344722
thorax -5.25945 -0.856862 1.62589
lowerneck -13.8733 0.775689 6.69724
upperneck 38.3867 0.435846 -3.2531
head 16.0032 0.75958 -2.5253
rclavicle -1.49368e-014 -6.16232e-015
rhumerus 1.90354 22.8104 -74.1015
rradius 136.038
rwrist -14.9474
rhand -31.1736 3.1095
rfingers 7.12502
rthumb -4.45079 -26.8237
lclavicle -1.49368e-014 -6.16232e-015
lhumerus -2.61052 -29.7947 79.3259
lradius 137.441
lwrist -4.93464
lhand -23.4833 4.49399
lfingers 7.12502
lthumb 2.97632 34.453
rfemur -47.9168 -1.48514 3.41012
rtibia 44.9667
rfoot -2.9296 -14.8646
rtoes -10.4413
lfemur 2.59356 -14.0216 -19.6489
ltibia 21.6656
lfoot -35.0396 28.9588
ltoes -6.93312
4
root 2.44927 14.5364 0.407482 12.7636 11.2027 2.71714
lowerback -5.01947 -1.62657 -3.6091
upperback -7.89856 -2.11271 -0.352061
thorax -5.27909 -0.856877 1.64051
lowerneck -13.7342 0.795489 6.80858
upperneck 38.4254 0.474897 -3.33408
head 15.9928 0.782579 -2.57404
rclavicle -9.79946e-015 -1.9953e-014
rhumerus 1.91494 22.8183 -74.1619
rradius 135.926
rwrist -14.7503
rhand -31.195 2.95605
rfingers 7.12502
rthumb -4.47141 -26.9768
lclavicle -9.79946e-015 -1.9953e-014
lhumerus -2.58044 -29.8192 79.2491
lradius 137.479
lwrist -4.85396
lhand -23.274 4.45935
lfingers 7.12502
lthumb 3.1785 34.4154
rfemur -47.8644 -1.36094 3.36448
rtibia 44.8869
rfoot -2.84872 -14.9449
rtoes -10.495
lfemur 2.6269 -13.9664 -19.6715
ltibia 21.6576
lfoot -35.008 28.9622
ltoes -6.96284
5
root 2.45344 14.5377 0.403974 12.7231 11.1686 2.70339
lowerback -5.04986 -1.63046 -3.62404
upperback -7.91781 -2.11694 -0.358391
thorax -5.28216 -0.858068 1.64162
lowerneck -13.6718 0.807232 6.86038
upperneck 38.4984 0.490881 -3.35565
head 16.017 0.796072 -2.59171
rclavicle -1.2921e-015 -1.82882e-014
rhumerus 1.95051 22.8414 -74.1951
rradius 135.864
rwrist -14.6595
rhand -31.1736 2.93701
rfingers 7.12502
rthumb -4.45076 -26.9962
lclavicle -1.2921e-015 -1.82882e-014
lhumerus -2.53805 -29.8278 79.1758
lradius 137.523
lwrist -4.80021
lhand -23.0652 4.38689
lfingers 7.12502
lthumb 3.38014 34.3398
rfemur -47.8011 -1.26178 3.33094
rtibia 44.8067
rfoot -2.785 -15.0075
rtoes -10.5359
lfemur 2.66689 -13.9272 -19.6906
ltibia 21.6463
lfoot -34.9936 28.9581
ltoes -6.95228
6
root 2.45768 14.5387 0.400721 12.6753 11.1234 2.69153
lowerback -5.08103 -1.6315 -3.63554
upperback -7.93001 -2.11735 -0.367738
thorax -5.27765 -0.857884 1.63759
lowerneck -13.6212 0.821203 6.91317
upperneck 38.5882 0.507502 -3.37306
head 16.053 0.810996 -2.60827
rclavicle -3.65795e-014 -1.49585e-014
rhumerus 2.00002 22.8254 -74.2228
rradius 135.716
rwrist -14.4506
rhand -31.143 2.90259
rfingers 7.12502
rthumb -4.42125 -27.0313
lclavicle -3.65795e-014 -1.49585e-014
lhumerus -2.47308 -29.8414 79.097
lradius 137.522
lwrist -4.74204
lhand -22.943 4.3433
lfingers 7.12502
lthumb 3.49818 34.2943
rfemur -47.7382 -1.14741 3.29196
rtibia 44.7352
rfoot -2.72342 -15.0726
rtoes -10.5745
lfemur 2.72747 -13.8912 -19.7199
ltibia 21.62
lfoot -34.9812 28.9625
ltoes -6.92001
7
root 2.46208 14.5394 0.397747 12.6179 11.0684 2.68694
lowerback -5.10731 -1.62887 -3.64716
upperback -7.93588 -2.11315 -0.382165
thorax -5.26957 -0.855711 1.62843
lowerneck -13.5776 0.836127 6.95417
upperneck 38.6897 0.521436 -3.37158
head 16.0968 0.826027 -2.61529
rclavicle 1.8282e-014 -6.70898e-015
rhumerus 2.05131 22.7788 -74.2438
rradius 135.508
rwrist -14.1637
rhand -31.0928 2.84072
rfingers 7.12502
rthumb -4.37276 -27.0941
lclavicle 1.8282e-014 -6.70898e-015
lhumerus -2.39239 -29.8598 79.0156
lradius 137.489
lwrist -4.67627
lhand -22.887 4.33098
lfingers 7.12502
lthumb 3.5522 34.2811
rfemur -47.6689 -1.02504 3.24359
rtibia 44.6666
rfoot -2.66238 -15.1336
rtoes -10.6119
lfemur 2.80655 -13.8613 -19.7665
ltibia 21.5908
lfoot -34.9776 28.9775
ltoes -6.87832
8
root 2.46658 14.5399 0.394881 12.5529 11.0077 2.68873
lowerback -5.12883 -1.62446 -3.65932
upperback -7.93417 -2.10676 -0.3995
thorax -5.25629 -0.852717 1.6166
lowerneck -13.5548 0.852411 6.97773
upperneck 38.8058 0.532226 -3.34727
head 16.1532 0.840687 -2.61027
rclavicle -2.08786e-014 -1.05356e-014
rhumerus 2.11141 22.7144 -74.2517
rradius 135.265
rwrist -13.8525
rhand -31.0314 2.75522
rfingers 7.12502
rthumb -4.31348 -27.1808
lclavicle -2.08786e-014 -1.05356e-014
lhumerus -2.29645 -29.8744 78.9323
lradius 137.432
lwrist -4.60142
lhand -22.8822 4.34159
lfingers 7.12502
lthumb 3.55687 34.2917
rfemur -47.5952 -0.895251 3.18579
rtibia 44.6037
rfoot -2.6051 -15.1949
rtoes -10.6384
lfemur 2.9019 -13.8361 -19.8265
ltibia 21.5543
lfoot -34.9782 28.9985
ltoes -6.82346
9
root 2.47098 14.5404 0.39195 12.484 10.9448 2.69431
lowerback -5.14204 -1.61949 -3.67244
upperback -7.9305 -2.1 -0.417735
thorax -5.24561 -0.84949 1.60459
lowerneck -13.5377 0.868724 6.99367
upperneck 38.9241 0.54106 -3.31324
head 16.2123 0.85481 -2.60001
rclavicle -2.7159e-014 5.31749e-015
rhumerus 2.17219 22.6463 -74.2479
rradius 135.017
rwrist -13.5707
rhand -30.9599 2.65323
rfingers 7.12502
rthumb -4.24446 -27.2842
lclavicle -2.7159e-014 5.31749e-015
lhumerus -2.19838 -29.8884 78.8526
lradius 137.361
lwrist -4.53157
lhand -22.9134 4.38364
lfingers 7.12502
lthumb 3.52673 34.3342
rfemur -47.52 -0.758162 3.12148
rtibia 44.5451
rfoot -2.5519 -15.2608
rtoes -10.6534
lfemur 3.00449 -13.8147 -19.8929
ltibia 21.5135
lfoot -34.9803 29.022
ltoes -6.75864
10
root 2.47517 14.5408 0.388896 12.4149 10.8839 2.70475
lowerback -5.15034 -1.61623 -3.69011
upperback -7.92435 -2.09563 -0.435528
thorax -5.2348 -0.847237 1.59567
lowerneck -13.5318 0.88746 7.00102
upperneck 39.0436 0.551153 -3.26882
head 16.2752 0.869638 -2.58345
rclavicle 3.71479e-015 1.77415e-014
rhumerus 2.23308 22.5904 -74.2312
rradius 134.79
rwrist -13.3502
rhand -30.9068 2.53915
rfingers 7.12502
rthumb -4.19313 -27.3993
lclavicle 3.71479e-015 1.77415e-014
lhumerus -2.09716 -29.8945 78.7731
lradius 137.288
lwrist -4.45607
lhand -22.9635 4.43387
lfingers 7.12502
lthumb 3.47831 34.3852
rfemur -47.4446 -0.617672 3.05015
rtibia 44.4885
rfoot -2.49994 -15.3331
rtoes -10.6623
lfemur 3.10566 -13.7921 -19.9626
ltibia 21.474
lfoot -34.9784 29.0455
ltoes -6.6983
11
root 2.47916 14.5413 0.385699 12.3495 10.8282 2.71427
lowerback -5.15565 -1.61565 -3.70685
upperback -7.91874 -2.09491 -0.450925
thorax -5.226 -0.846739 1.58877
lowerneck -13.5316 0.906946 7.01281
upperneck 39.1594 0.562324 -3.2295
head 16.3379 0.884743 -2.56963
rclavicle 1.97356e-014 -5.81445e-015
rhumerus 2.28912 22.5547 -74.2035
rradius 134.604
rwrist -13.2156
rhand -30.8644 2.41919
rfingers 7.12502
rthumb -4.15218 -27.5201
lclavicle 1.97356e-014 -5.81445e-015
lhumerus -1.99701 -29.8954 78.6931
lradius 137.213
lwrist -4.39341
lhand -23.031 4.49655
lfingers 7.12502
lthumb 3.41318 34.449
rfemur -47.3714 -0.476191 2.97887
rtibia 44.4306
rfoot -2.44665 -15.4123
rtoes -10.663
lfemur 3.19631 -13.7665 -20.0264
ltibia 21.4408
lfoot -34.9735 29.0648
ltoes -6.6433
